<svg xmlns="http://www.w3.org/2000/svg" style="display: none;">
  <symbol id="logo-icon" viewBox="0 0 534 534">
    <path d="m262.118 32.764-262.118 131.057v327.65h524.235v-327.641l-262.117-131.065zm32.764 393.177v-65.529h32.765v65.529zm131.059 0v-65.529h-65.529v-65.529h-98.294v65.529h-32.765v65.529h-32.765v-65.529h-32.765v-65.529h-65.529v65.529 65.529h-32.765v-163.824h393.176v163.824z" fill="var(--theme-color)"/>
  </symbol>
  <symbol id="a1-icon" width="20" height="20" viewBox="0 2 20 20">
    <path d="M18.9675 3V13.3226L19.4837 12.8065V3.51613L18.9675 3Z" fill="#0B0B0B"></path><path d="M14.8386 7.64505H15.8709L16.9031 7.12892V6.61279L14.8386 7.64505Z" fill="#0B0C0C"></path><path d="M18.9677 3H17.4193C17.4193 3 17.1597 3.66169 16.9031 4.03226C16.3295 4.86087 14.8386 5.58065 14.8386 5.58065V7.64516L16.9031 6.6129V12.8065L18.9677 13.3226V3Z" fill="#363636"></path><path fill-rule="evenodd" clip-rule="evenodd" d="M5 18.5L9.67739 4.54834L12.1426 5.04139C12.2139 5.05563 12.2718 5.10737 12.2939 5.17655L16.3036 17.7067C16.3449 17.8358 16.2486 17.9677 16.1131 17.9677H13.8064L12.7742 15.387H9.16126L8.17434 18.3478C8.14724 18.4291 8.07134 18.4841 7.98563 18.4846L5 18.5ZM11.036 9.24658L9.76514 13.0593C9.72197 13.1888 9.81836 13.3225 9.95487 13.3225H12.4967C12.6332 13.3225 12.7296 13.1888 12.6864 13.0593L11.4155 9.24658C11.3547 9.06424 11.0968 9.06424 11.036 9.24658Z" fill="#FF1917"></path><path d="M8.64516 5.06447L4.09188 18.2184C4.04691 18.3483 4.14339 18.4838 4.28087 18.4838H5L9.67742 4.54834L8.64516 5.06447Z" fill="#990707"></path><path d="M11.7419 15.387L12.7239 17.8419C12.7543 17.9178 12.8278 17.9676 12.9096 17.9676H13.8065L12.7742 15.387H11.7419Z" fill="#990707"></path><path d="M10.7097 10.2259L11.742 13.3227H12.4967C12.6333 13.3227 12.7297 13.1889 12.6865 13.0594L11.4156 9.2467C11.3548 9.06436 11.0969 9.06436 11.0361 9.2467L10.7097 10.2259Z" fill="#990707"></path>
  </symbol>
  <symbol id="call-icon" width="18" height="18" viewBox="0 0 241.73 241.73">
    <g>
      <path d="M234.771,181.213l-34.938-34.953c-4.692-4.668-10.975-7.24-17.689-7.24
        c-6.987,0-13.584,2.751-18.572,7.742l-13.6,13.597c-10.568-5.874-24.614-13.953-39.197-28.536
        c-14.566-14.571-22.646-28.576-28.55-39.201l13.613-13.603c10.121-10.142,10.328-26.413,0.463-36.269L61.37,7.818
        c-4.679-4.692-10.962-7.276-17.693-7.276c-6.831,0-13.293,2.63-18.252,7.417c-3,2.416-18.055,15.706-23.666,43.114
        c-7.856,38.363,10.194,75.274,62.302,127.403c58.209,58.191,107.902,62.714,121.746,62.714c2.882,0,4.621-0.178,5.085-0.232
        c27.147-3.182,36.867-15.238,43.964-24.041C244.052,205.508,244.02,190.496,234.771,181.213z M223.178,207.502
        c-6.671,8.274-12.971,16.088-34.031,18.557c-0.011,0.001-1.163,0.13-3.34,0.13c-12.386,0-57.008-4.206-111.139-58.32
        C26.615,119.796,9.749,86.829,16.454,54.081c4.894-23.906,17.887-34.067,18.392-34.453l0.448-0.331l0.393-0.394
        c2.169-2.167,5.006-3.361,7.989-3.361c2.716,0,5.228,1.018,7.08,2.876l34.939,34.94c4.02,4.016,3.806,10.774-0.471,15.06
        L69.829,83.8l-0.253,0.265c-4.012,4.419-3.54,10.391-1.33,14.28c6.377,11.508,15.112,27.269,31.92,44.082
        c16.752,16.752,32.49,25.48,43.966,31.845c1.149,0.645,3.521,1.727,6.49,1.727c3.506,0,6.725-1.484,9.108-4.189l14.448-14.444
        c2.157-2.158,4.985-3.347,7.964-3.347c2.722,0,5.247,1.021,7.095,2.859l34.915,34.93
        C228.587,196.259,226.756,203.064,223.178,207.502z" fill="currentColor"/>
      <path d="M146.447,37.293c12.887,1.483,28.061,9.289,38.657,19.886c10.695,10.695,18.52,26.023,19.933,39.05
        c0.417,3.843,3.667,6.691,7.447,6.691c0.27,0,0.544-0.015,0.818-0.044c4.118-0.447,7.094-4.147,6.647-8.265
        c-1.787-16.467-11.075-34.874-24.238-48.038c-13.04-13.041-31.259-22.306-47.549-24.181c-4.113-0.477-7.834,2.479-8.308,6.593
        C139.38,33.099,142.331,36.819,146.447,37.293z" fill="currentColor"/>
      <path d="M139.44,68.711c6.97,0.803,16.616,5.973,22.935,12.292c6.373,6.374,11.553,16.112,12.316,23.157
        c0.417,3.844,3.667,6.692,7.447,6.692c0.27,0,0.543-0.015,0.817-0.044c4.118-0.447,7.095-4.147,6.648-8.265
        c-1.304-12.028-9.289-24.813-16.623-32.147c-7.268-7.269-19.928-15.216-31.825-16.587c-4.119-0.479-7.835,2.478-8.309,6.592
        C132.373,64.516,135.325,68.237,139.44,68.711z" fill="currentColor"/>
    </g>
  </symbol>
  <symbol id="email-icon" width="18" height="18" viewBox="0 0 477.867 477.867">
    <g>
      <g>
        <path d="M460.8,68.267H17.067C7.641,68.267,0,75.908,0,85.333v307.2c0,9.426,7.641,17.067,17.067,17.067H460.8
          c9.426,0,17.067-7.641,17.067-17.067v-307.2C477.867,75.908,470.226,68.267,460.8,68.267z M432.811,102.4L238.933,251.529
          L45.056,102.4H432.811z M443.733,375.467h-409.6V137.062L228.54,286.6c6.13,4.707,14.657,4.707,20.787,0l194.406-149.538V375.467z
          " fill="currentColor"/>
      </g>
    </g>
  </symbol>
  <symbol id="facebook-icon" width="20" height="20" viewBox="0 0 24 24">
    <path d="m15.997 3.985h2.191v-3.816c-.378-.052-1.678-.169-3.192-.169-6.932 0-5.046 7.85-5.322 9h-3.487v4.266h3.486v10.734h4.274v-10.733h3.345l.531-4.266h-3.877c.188-2.824-.761-5.016 2.051-5.016z" fill="#3b5999"/>  </symbol>
  <symbol id="instagram-icon" width="20" height="20" viewBox="0 0 512 512">
    <linearGradient id="SVGID_1_" gradientUnits="userSpaceOnUse" x1="-46.0041" y1="634.1208" x2="-32.9334" y2="647.1917" gradientTransform="matrix(32 0 0 -32 1519 20757)">
      <stop  offset="0" style="stop-color:#FFC107"/>
      <stop  offset="0.507" style="stop-color:#F44336"/>
      <stop  offset="0.99" style="stop-color:#9C27B0"/>
    </linearGradient>
    <path style="fill:url(#SVGID_1_);" d="M352,0H160C71.648,0,0,71.648,0,160v192c0,88.352,71.648,160,160,160h192
      c88.352,0,160-71.648,160-160V160C512,71.648,440.352,0,352,0z M464,352c0,61.76-50.24,112-112,112H160c-61.76,0-112-50.24-112-112
      V160C48,98.24,98.24,48,160,48h192c61.76,0,112,50.24,112,112V352z"/>
    <linearGradient id="SVGID_2_" gradientUnits="userSpaceOnUse" x1="-42.2971" y1="637.8279" x2="-36.6404" y2="643.4846" gradientTransform="matrix(32 0 0 -32 1519 20757)">
      <stop  offset="0" style="stop-color:#FFC107"/>
      <stop  offset="0.507" style="stop-color:#F44336"/>
      <stop  offset="0.99" style="stop-color:#9C27B0"/>
    </linearGradient>
    <path style="fill:url(#SVGID_2_);" d="M256,128c-70.688,0-128,57.312-128,128s57.312,128,128,128s128-57.312,128-128
      S326.688,128,256,128z M256,336c-44.096,0-80-35.904-80-80c0-44.128,35.904-80,80-80s80,35.872,80,80
      C336,300.096,300.096,336,256,336z"/>
    <linearGradient id="SVGID_3_" gradientUnits="userSpaceOnUse" x1="-35.5456" y1="644.5793" x2="-34.7919" y2="645.3331" gradientTransform="matrix(32 0 0 -32 1519 20757)">
      <stop  offset="0" style="stop-color:#FFC107"/>
      <stop  offset="0.507" style="stop-color:#F44336"/>
      <stop  offset="0.99" style="stop-color:#9C27B0"/>
    </linearGradient>
    <circle style="fill:url(#SVGID_3_);" cx="393.6" cy="118.4" r="17.056"/>
  </symbol>
  <symbol id="life-icon" width="20" height="20" viewBox="0 2 24 24">
    <path d="M11.0293 14.7883C11.0293 15.6251 10.3517 16.3024 9.5147 16.3024C8.67823 16.3024 8 15.6251 8 14.7883C8 13.9517 8.67811 13.2734 9.5147 13.2734C10.3517 13.2734 11.0293 13.9516 11.0293 14.7883ZM11.0293 8.21145C11.0293 9.04792 10.3517 9.72628 9.5147 9.72628C8.67823 9.72628 8 9.04804 8 8.21145C8 7.37535 8.67811 6.69663 9.5147 6.69663C10.3517 6.69663 11.0293 7.37523 11.0293 8.21145ZM12.8097 3C14.7077 5.21166 15.847 8.40396 15.847 11.4997C15.847 14.5957 14.7077 17.7886 12.8097 20L11.5593 19.0736C12.8979 16.7092 13.5688 14.5199 13.5688 11.4998C13.5688 8.48069 12.8979 6.29118 11.5593 3.92605L12.8097 3Z" fill="currentColor"></path>  </symbol>
  <symbol id="message-icon" width="18" height="18" viewBox="0 0 612 612">
    <path d="M401.625,325.125h-191.25c-10.557,0-19.125,8.568-19.125,19.125s8.568,19.125,19.125,19.125h191.25
      c10.557,0,19.125-8.568,19.125-19.125S412.182,325.125,401.625,325.125z M439.875,210.375h-267.75
      c-10.557,0-19.125,8.568-19.125,19.125s8.568,19.125,19.125,19.125h267.75c10.557,0,19.125-8.568,19.125-19.125
      S450.432,210.375,439.875,210.375z M306,0C137.012,0,0,119.875,0,267.75c0,84.514,44.848,159.751,114.75,208.826V612
      l134.047-81.339c18.552,3.061,37.638,4.839,57.203,4.839c169.008,0,306-119.875,306-267.75C612,119.875,475.008,0,306,0z
      M306,497.25c-22.338,0-43.911-2.601-64.643-7.019l-90.041,54.123l1.205-88.701C83.5,414.133,38.25,345.513,38.25,267.75
      c0-126.741,119.875-229.5,267.75-229.5c147.875,0,267.75,102.759,267.75,229.5S453.875,497.25,306,497.25z" fill="currentColor"/>
  </symbol>
  <symbol id="odnoklassniki-icon" width="24" height="24" viewBox="0 0 512.008 512.008">
    <path style="fill:#FFC107;" d="M256.002,256c70.592,0,128-57.408,128-128s-57.408-128-128-128s-128,57.408-128,128
      S185.41,256,256.002,256z M256.002,64c35.296,0,64,28.704,64,64s-28.704,64-64,64s-64-28.704-64-64S220.706,64,256.002,64z"/>
    <path style="fill:#FFC107;" d="M425.73,252.448c-12.512-12.512-32.736-12.512-45.248,0c-68.608,68.608-180.288,68.608-248.928,0
      c-12.512-12.512-32.736-12.512-45.248,0s-12.512,32.736,0,45.28c39.808,39.808,90.272,62.496,142.304,68.416l-91.232,91.232
      c-12.512,12.512-12.512,32.736,0,45.248c12.512,12.512,32.736,12.512,45.248,0l73.376-73.376l73.376,73.376
      c6.24,6.24,14.432,9.376,22.624,9.376s16.384-3.136,22.624-9.376c12.512-12.512,12.512-32.736,0-45.248l-91.232-91.232
      c52.032-5.92,102.496-28.608,142.304-68.416C438.21,285.216,438.21,264.96,425.73,252.448z"/>
  </symbol>
  <symbol id="telegram-icon" width="20" height="20" viewBox="0 0 24 24">
    <circle cx="12" cy="12" fill="#039be5" r="12"/><path d="m5.491 11.74 11.57-4.461c.537-.194 1.006.131.832.943l.001-.001-1.97 9.281c-.146.658-.537.818-1.084.508l-3-2.211-1.447 1.394c-.16.16-.295.295-.605.295l.213-3.053 5.56-5.023c.242-.213-.054-.333-.373-.121l-6.871 4.326-2.962-.924c-.643-.204-.657-.643.136-.953z" fill="#fff"/>  </symbol>
  <symbol id="telephone-icon" width="20" height="20" viewBox="0 0 512 512">
		<path d="M492.381,104.546c-19.646-27.033-54.051-51.433-96.876-68.703C352.91,18.667,303.454,9.168,256.245,9.101
			c-47.213-0.118-96.73,9.283-139.386,26.325c-42.9,17.141-77.386,41.435-97.104,68.404C0.817,129.732-4.641,157.651,3.97,184.569
			c5.587,17.461,21.882,29.211,40.558,29.238l63.951,0.06c0.022,0,0.043,0,0.064,0c12.752-0.001,24.733-5.583,32.875-15.322
			c8.056-9.635,11.392-22.227,9.156-34.549c-0.066-0.362-0.145-0.721-0.236-1.078l-3.365-13.082
			c18.634-8.891,60.854-26.069,109.075-25.796c48.186,0.247,90.377,17.415,109.033,26.31l-3.419,13.008
			c-0.097,0.369-0.18,0.739-0.248,1.112c-2.271,12.315,1.03,24.916,9.057,34.574c8.129,9.78,20.118,15.398,32.903,15.417
			l63.951,0.06c0.022,0,0.043,0,0.064,0c18.641-0.001,34.941-11.696,40.569-29.121C516.651,158.489,511.265,130.531,492.381,104.546
			z" fill="currentColor"/>
		<path d="M400.596,279.807l-47.69-50.075c-2.884-3.028-6.882-4.741-11.063-4.741h-30.82v-20.823c0-8.437-6.84-15.278-15.278-15.278
			c-8.438,0-15.278,6.84-15.278,15.278v20.823h-48.922v-20.823c0-8.437-6.84-15.278-15.278-15.278s-15.278,6.84-15.278,15.278
			v20.823h-30.819c-4.181,0-8.18,1.714-11.063,4.741l-47.69,50.075c-37.392,39.262-57.985,90.744-57.985,144.962v62.853
			c0,8.438,6.84,15.278,15.278,15.278h374.592c8.438,0,15.278-6.84,15.278-15.278v-62.853
			C458.581,370.551,437.988,319.07,400.596,279.807z M256.006,447.054c-44.09,0-79.959-35.87-79.959-79.96
			c0-44.089,35.87-79.959,79.959-79.959s79.959,35.87,79.959,79.959C335.965,411.184,300.095,447.054,256.006,447.054z" fill="currentColor"/>
		<path d="M256.006,317.691c-27.242,0-49.403,22.162-49.403,49.403c0,27.242,22.162,49.404,49.403,49.404
			s49.403-22.162,49.403-49.404C305.409,339.854,283.247,317.691,256.006,317.691z" fill="currentColor"/>
  </symbol>
  <symbol id="viber-icon" width="20" height="20" viewBox="0 0 24 24">
    <g fill="#8e24aa"><path d="m23.155 13.893c.716-6.027-.344-9.832-2.256-11.553l.001-.001c-3.086-2.939-13.508-3.374-17.2.132-1.658 1.715-2.242 4.232-2.306 7.348-.064 3.117-.14 8.956 5.301 10.54h.005l-.005 2.419s-.037.98.589 1.177c.716.232 1.04-.223 3.267-2.883 3.724.323 6.584-.417 6.909-.525.752-.252 5.007-.815 5.695-6.654zm-12.237 5.477s-2.357 2.939-3.09 3.702c-.24.248-.503.225-.499-.267 0-.323.018-4.016.018-4.016-4.613-1.322-4.341-6.294-4.291-8.895.05-2.602.526-4.733 1.93-6.168 3.239-3.037 12.376-2.358 14.704-.17 2.846 2.523 1.833 9.651 1.839 9.894-.585 4.874-4.033 5.183-4.667 5.394-.271.09-2.786.737-5.944.526z"/><path d="m12.222 4.297c-.385 0-.385.6 0 .605 2.987.023 5.447 2.105 5.474 5.924 0 .403.59.398.585-.005h-.001c-.032-4.115-2.718-6.501-6.058-6.524z"/><path d="m16.151 10.193c-.009.398.58.417.585.014.049-2.269-1.35-4.138-3.979-4.335-.385-.028-.425.577-.041.605 2.28.173 3.481 1.729 3.435 3.716z"/><path d="m15.521 12.774c-.494-.286-.997-.108-1.205.173l-.435.563c-.221.286-.634.248-.634.248-3.014-.797-3.82-3.951-3.82-3.951s-.037-.427.239-.656l.544-.45c.272-.216.444-.736.167-1.247-.74-1.337-1.237-1.798-1.49-2.152-.266-.333-.666-.408-1.082-.183h-.009c-.865.506-1.812 1.453-1.509 2.428.517 1.028 1.467 4.305 4.495 6.781 1.423 1.171 3.675 2.371 4.631 2.648l.009.014c.942.314 1.858-.67 2.347-1.561v-.007c.217-.431.145-.839-.172-1.106-.562-.548-1.41-1.153-2.076-1.542z"/><path d="m13.169 8.104c.961.056 1.427.558 1.477 1.589.018.403.603.375.585-.028-.064-1.346-.766-2.096-2.03-2.166-.385-.023-.421.582-.032.605z"/></g>  </symbol>
  <symbol id="vk-icon" width="20" height="20" viewBox="0 0 511.962 511.962">
    <path style="fill:#1E88E5;" d="M250.503,400.807h30.592c0,0,9.248-1.024,13.952-6.112c4.352-4.672,4.192-13.44,4.192-13.44
      s-0.608-41.056,18.464-47.104c18.784-5.952,42.912,39.68,68.48,57.248c19.328,13.28,34.016,10.368,34.016,10.368l68.384-0.96
      c0,0,35.776-2.208,18.816-30.336c-1.376-2.304-9.888-20.8-50.848-58.816c-42.88-39.808-37.12-33.344,14.528-102.176
      c31.456-41.92,44.032-67.52,40.096-78.464c-3.744-10.432-26.88-7.68-26.88-7.68l-76.928,0.448c0,0-5.696-0.768-9.952,1.76
      c-4.128,2.496-6.784,8.256-6.784,8.256s-12.192,32.448-28.448,60.032c-34.272,58.208-48,61.28-53.6,57.664
      c-13.024-8.416-9.76-33.856-9.76-51.904c0-56.416,8.544-79.936-16.672-86.016c-8.384-2.016-14.528-3.36-35.936-3.584
      c-27.456-0.288-50.72,0.096-63.872,6.528c-8.768,4.288-15.52,13.856-11.392,14.4c5.088,0.672,16.608,3.104,22.72,11.424
      c7.904,10.72,7.616,34.848,7.616,34.848s4.544,66.4-10.592,74.656c-10.4,5.664-24.64-5.888-55.2-58.72
      c-15.648-27.04-27.488-56.96-27.488-56.96s-2.272-5.568-6.336-8.544c-4.928-3.616-11.84-4.768-11.84-4.768l-73.152,0.448
      c0,0-10.976,0.32-15.008,5.088c-3.584,4.256-0.288,13.024-0.288,13.024s57.28,133.984,122.112,201.536
      C182.983,404.871,250.503,400.807,250.503,400.807L250.503,400.807z"/>
  </symbol>
</svg>
